Coordinates
version=1
nRows=13
nColumns=40
inDegrees=yes

Units are S.I. units (second, meters, Newtons, ...)
Angles are in degrees.

endheader
time	pelvis_tilt	pelvis_list	pelvis_rotation	pelvis_tx	pelvis_ty	pelvis_tz	hip_flexion_r	hip_adduction_r	hip_rotation_r	knee_angle_r	knee_angle_r_beta	ankle_angle_r	subtalar_angle_r	mtp_angle_r	hip_flexion_l	hip_adduction_l	hip_rotation_l	knee_angle_l	knee_angle_l_beta	ankle_angle_l	subtalar_angle_l	mtp_angle_l	lumbar_extension	lumbar_bending	lumbar_rotation	arm_flex_r	arm_add_r	arm_rot_r	elbow_flex_r	pro_sup_r	wrist_flex_r	wrist_dev_r	arm_flex_l	arm_add_l	arm_rot_l	elbow_flex_l	pro_sup_l	wrist_flex_l	wrist_dev_l
     40.29500000	     -9.67558589	     -8.67874704	      0.93989919	      1.00811514	      0.91219593	      0.48460839	      2.69109741	      7.17410697	    -16.31270786	      5.55579019	      5.55579019	     14.98650645	     11.03205735	     -2.45030203	     38.67023840	    -11.66914767	      3.08214334	     22.64081237	     22.64081237	      5.71306793	    -11.03648338	     11.85800856	    -10.38435859	      6.72423656	      5.76083256	     50.44164920	    -11.91402392	      1.50077719	    108.20452452	     44.33255081	      0.00000000	      0.00000000	    -19.55103028	     -6.55232585	      8.30904222	     31.59494540	     44.42978425	      0.00000000	      0.00000000
     40.30635714	     -9.65228620	     -8.63850037	      0.68663010	      1.00922017	      0.91082269	      0.48276534	      2.17193837	      6.95829259	    -15.96444115	      5.87954433	      5.87954433	     15.58773979	     10.99126624	     -2.57759538	     38.13592932	    -11.71003174	      2.31660292	     22.63378742	     22.63378742	      5.10266386	    -11.22882053	     11.92928597	    -10.07668617	      6.66825041	      5.95283793	     51.65370504	    -11.35320579	      1.57487396	    108.93818390	     44.31642219	      0.00000000	      0.00000000	    -19.90893716	     -6.52028703	      8.44062852	     31.47742912	     44.41282202	      0.00000000	      0.00000000
     40.31771429	     -9.60392029	     -8.53781813	      0.51004009	      1.01023938	      0.90959909	      0.48068595	      1.95685920	      6.59572066	    -15.39900609	      6.85426779	      6.85426779	     16.66645945	     10.25220795	     -1.72117155	     37.60638939	    -11.63933113	      1.71325036	     22.78834303	     22.78834303	      3.68859389	    -11.82738391	      9.60921550	     -9.83414734	      6.55299803	      5.63991256	     52.62231300	    -10.37316402	      2.02157705	    110.01617622	     44.30597063	      0.00000000	      0.00000000	    -20.48365177	     -6.60958033	      9.16738670	     31.85867114	     44.35455918	      0.00000000	      0.00000000
     40.32907143	     -9.41290127	     -8.36390326	      0.38954794	      1.01121566	      0.90886464	      0.47834381	      1.47421980	      6.15266726	    -15.10169688	      7.54393376	      7.54393376	     17.24937355	      9.97465263	     -1.78855047	     37.17851633	    -11.47946134	      1.24835759	     23.58274792	     23.58274792	      3.37663117	    -12.24462782	      9.27001804	     -9.77038644	      6.33958687	      5.64213884	     53.55185819	     -9.90966098	      2.11375398	    110.62679324	     44.29238636	      0.00000000	      0.00000000	    -20.52215971	     -6.61753785	      9.27894616	     31.82112147	     44.34656513	      0.00000000	      0.00000000
     40.34042857	     -9.32879631	     -8.17376974	      0.31567583	      1.01181331	      0.90817224	      0.47586708	      1.54525605	      5.59156970	    -14.69535202	      9.02134204	      9.02134204	     17.98630963	      9.10044919	     -1.73014883	     36.94804696	    -11.26988305	      0.96600298	     24.52746963	     24.52746963	      3.14244635	    -12.62525148	      8.39877094	     -9.66455116	      6.14742642	      5.32969972	     54.27485763	     -9.23474221	      2.42055626	    111.60596970	     44.26369409	      0.00000000	      0.00000000	    -20.48807493	     -6.60209534	      9.49596595	     31.76401572	     44.33252484	      0.00000000	      0.00000000
     40.35178571	     -9.23261057	     -7.91388111	      0.27707073	      1.01236630	      0.90784389	      0.47314384	      1.65737108	      4.94348885	    -14.21591284	     10.57551579	     10.57551579	     18.65178360	      8.06861594	     -1.54448769	     36.71231676	    -10.95002844	      0.76057205	     25.53271817	     25.53271817	      3.09155893	    -13.04478741	      7.44864020	     -9.56098532	      5.86815960	      5.11601469	     54.67469218	     -8.87728224	      2.73349864	    112.40956937	     44.24129566	      0.00000000	      0.00000000	    -20.19958729	     -6.67315575	      9.72130869	     31.68281186	     44.32533471	      0.00000000	      0.00000000
     40.36314286	     -9.06587348	     -7.65897689	      0.27355006	      1.01284082	      0.90791448	      0.47028212	      1.81212847	      4.27061314	    -13.78318080	     12.31796649	     12.31796649	     19.14718731	      7.01809631	     -1.48174301	     36.39021915	    -10.60190635	      0.67069681	     26.53434029	     26.53434029	      3.37539473	    -13.40495460	      6.69737283	     -9.56477368	      5.59570974	      4.93159941	     54.88965359	     -8.69276810	      3.01667749	    113.17795833	     44.21995969	      0.00000000	      0.00000000	    -19.68093413	     -6.75091346	      9.93188384	     31.52690155	     44.32361858	      0.00000000	      0.00000000
     40.37450000	     -8.88209480	     -7.39962863	      0.28340009	      1.01319326	      0.90833073	      0.46725047	      2.10941849	      3.54943721	    -13.39817233	     14.32567043	     14.32567043	     19.45166382	      5.93560445	     -1.63914923	     35.99911855	    -10.22357481	      0.59982243	     27.43186860	     27.43186860	      3.89698387	    -13.66237095	      6.18125703	     -9.62070280	      5.34986915	      4.75373574	     54.90279229	     -8.63348649	      3.28848370	    113.91231224	     44.19783792	      0.00000000	      0.00000000	    -18.96121737	     -6.82450776	     10.10902994	     31.32642201	     44.32743789	      0.00000000	      0.00000000
     40.38585714	     -8.75029429	     -7.15908551	      0.28314482	      1.01344976	      0.90898618	      0.46417423	      2.63571422	      2.82449842	    -12.96467349	     16.61761251	     16.61761251	     19.54300883	      4.69403565	     -1.99842849	     35.55748121	     -9.84369411	      0.55190838	     28.12423168	     28.12423168	      4.61120149	    -13.83281887	      5.86366354	     -9.61691449	      5.12530524	      4.67411699	     54.51963834	     -8.84039947	      3.59828612	    114.74638520	     44.17339348	      0.00000000	      0.00000000	    -18.01390123	     -6.95341117	     10.32493552	     30.90939098	     44.33617003	      0.00000000	      0.00000000
     40.39721429	     -8.49211030	     -6.93472905	      0.27443641	      1.01371623	      0.91009836	      0.46101948	      3.09462789	      2.07853154	    -12.67886126	     19.00927575	     19.00927575	     19.35783210	      3.70600272	     -2.52014375	     34.87839676	     -9.48748974	      0.40898940	     28.63137085	     28.63137085	      5.39968830	    -13.92976346	      5.58304081	     -9.80113881	      4.94976596	      4.52126185	     54.12610060	     -8.92922995	      3.82624190	    115.22140337	     44.15592892	      0.00000000	      0.00000000	    -17.04451757	     -7.05195231	     10.41057824	     30.76745305	     44.35111462	      0.00000000	      0.00000000
     40.40857143	     -8.37614585	     -6.66539965	      0.20322824	      1.01373482	      0.91121479	      0.45799865	      4.03427454	      1.23573498	    -12.31793957	     21.95022342	     21.95022342	     18.95213178	      2.45230371	     -3.29813110	     34.22803685	     -9.11135738	      0.19807618	     28.89697237	     28.89697237	      6.16919282	    -13.89687601	      5.36800320	     -9.79608568	      4.70138925	      4.42312522	     53.42430549	     -9.16016508	      4.12248787	    115.72190640	     44.13417946	      0.00000000	      0.00000000	    -15.95064554	     -7.18735147	     10.47058398	     30.56400996	     44.37197376	      0.00000000	      0.00000000
     40.41992857	     -8.41936947	     -6.43192964	      0.14100171	      1.01353111	      0.91227627	      0.45497453	      5.33165351	      0.43476176	    -11.92092197	     25.13959169	     25.13959169	     18.13622481	      0.88522515	     -4.41888226	     33.63823530	     -8.74861166	     -0.05183591	     28.89147586	     28.89147586	      6.89506720	    -13.78608225	      5.26418724	     -9.65655961	      4.54501110	      4.41620071	     52.46506026	     -9.71680593	      4.41583735	    116.33740381	     44.11076844	      0.00000000	      0.00000000	    -14.60056776	     -7.30921201	     10.53348073	     30.19487718	     44.40207418	      0.00000000	      0.00000000
     40.43128571	     -8.23442790	     -6.25380586	      0.05656660	      1.01341498	      0.91381363	      0.45221605	      6.43047701	     -0.30280430	    -11.59900046	     28.36500396	     28.36500396	     17.05696795	     -0.44141499	     -5.29286225	     32.74416203	     -8.47688143	     -0.31353962	     28.79947758	     28.79947758	      7.60246710	    -13.65519519	      5.06676864	     -9.76935238	      4.34945149	      4.34521151	     51.37576401	    -10.01625888	      4.69684145	    116.55904344	     44.09546086	      0.00000000	      0.00000000	    -13.32488194	     -7.48103074	     10.52164674	     30.10850258	     44.43429829	      0.00000000	      0.00000000
